<?xml version="1.0" encoding="UTF-8" standalone="no"?>
<!DOCTYPE svg PUBLIC "-//W3C//DTD SVG 1.1//EN"
 "http://www.w3.org/Graphics/SVG/1.1/DTD/svg11.dtd">
<!-- Generated by graphviz version 2.43.0 (0)
 -->
<!-- Title: G Pages: 1 -->
<svg width="998pt" height="126pt"
 viewBox="0.00 0.00 998.00 125.57" xmlns="http://www.w3.org/2000/svg" xmlns:xlink="http://www.w3.org/1999/xlink">
<g id="graph0" class="graph" transform="scale(1 1) rotate(0) translate(4 121.57)">
<title>G</title>
<polygon fill="white" stroke="transparent" points="-4,4 -4,-121.57 994,-121.57 994,4 -4,4"/>
<!-- node0x560d95af0eb0 -->
<g id="node1" class="node">
<title>node0x560d95af0eb0</title>
<polygon fill="none" stroke="black" points="0,-58.07 0,-94.07 246,-94.07 246,-58.07 0,-58.07"/>
<text text-anchor="middle" x="10.5" y="-72.37" font-family="Times,serif" font-size="14.00"> </text>
<polyline fill="none" stroke="black" points="21,-58.07 21,-94.07 "/>
<text text-anchor="middle" x="78" y="-72.37" font-family="Times,serif" font-size="14.00">data=&#45;4.0000</text>
<polyline fill="none" stroke="black" points="135,-58.07 135,-94.07 "/>
<text text-anchor="middle" x="190.5" y="-72.37" font-family="Times,serif" font-size="14.00">grad=0.0000</text>
</g>
<!-- node0x560d95af1130+ -->
<g id="node4" class="node">
<title>node0x560d95af1130+</title>
<ellipse fill="none" stroke="black" cx="309" cy="-48.07" rx="27" ry="18"/>
<text text-anchor="middle" x="309" y="-44.37" font-family="Times,serif" font-size="14.00">+</text>
</g>
<!-- node0x560d95af0eb0&#45;&gt;node0x560d95af1130+ -->
<g id="edge3" class="edge">
<title>node0x560d95af0eb0&#45;&gt;node0x560d95af1130+</title>
<path fill="none" stroke="black" d="M242.35,-58.06C253.08,-56.43 263.29,-54.88 272.32,-53.5"/>
<polygon fill="black" stroke="black" points="272.98,-56.94 282.34,-51.98 271.93,-50.02 272.98,-56.94"/>
</g>
<!-- node0x560d95af0fb0 -->
<g id="node2" class="node">
<title>node0x560d95af0fb0</title>
<polygon fill="none" stroke="black" points="2,-3.07 2,-39.07 244,-39.07 244,-3.07 2,-3.07"/>
<text text-anchor="middle" x="12.5" y="-17.37" font-family="Times,serif" font-size="14.00"> </text>
<polyline fill="none" stroke="black" points="23,-3.07 23,-39.07 "/>
<text text-anchor="middle" x="78" y="-17.37" font-family="Times,serif" font-size="14.00">data=2.0000</text>
<polyline fill="none" stroke="black" points="133,-3.07 133,-39.07 "/>
<text text-anchor="middle" x="188.5" y="-17.37" font-family="Times,serif" font-size="14.00">grad=0.0000</text>
</g>
<!-- node0x560d95af0fb0&#45;&gt;node0x560d95af1130+ -->
<g id="edge4" class="edge">
<title>node0x560d95af0fb0&#45;&gt;node0x560d95af1130+</title>
<path fill="none" stroke="black" d="M244.16,-38.71C254.34,-40.2 264.01,-41.62 272.61,-42.88"/>
<polygon fill="black" stroke="black" points="272.11,-46.34 282.52,-44.33 273.13,-39.42 272.11,-46.34"/>
</g>
<!-- node0x560d95af1130 -->
<g id="node3" class="node">
<title>node0x560d95af1130</title>
<polygon fill="none" stroke="black" points="372,-81.07 372,-117.07 618,-117.07 618,-81.07 372,-81.07"/>
<text text-anchor="middle" x="382.5" y="-95.37" font-family="Times,serif" font-size="14.00"> </text>
<polyline fill="none" stroke="black" points="393,-81.07 393,-117.07 "/>
<text text-anchor="middle" x="450" y="-95.37" font-family="Times,serif" font-size="14.00">data=&#45;3.0000</text>
<polyline fill="none" stroke="black" points="507,-81.07 507,-117.07 "/>
<text text-anchor="middle" x="562.5" y="-95.37" font-family="Times,serif" font-size="14.00">grad=0.0000</text>
</g>
<!-- node0x560d95af1a30+ -->
<g id="node7" class="node">
<title>node0x560d95af1a30+</title>
<ellipse fill="none" stroke="black" cx="681" cy="-44.07" rx="27" ry="18"/>
<text text-anchor="middle" x="681" y="-40.37" font-family="Times,serif" font-size="14.00">+</text>
</g>
<!-- node0x560d95af1130&#45;&gt;node0x560d95af1a30+ -->
<g id="edge5" class="edge">
<title>node0x560d95af1130&#45;&gt;node0x560d95af1a30+</title>
<path fill="none" stroke="black" d="M587.17,-81.07C597.65,-78.36 608.12,-75.36 618,-72.07 628.7,-68.52 640.05,-63.72 650.06,-59.1"/>
<polygon fill="black" stroke="black" points="651.66,-62.21 659.2,-54.77 648.66,-55.89 651.66,-62.21"/>
</g>
<!-- node0x560d95af1130+&#45;&gt;node0x560d95af1130 -->
<g id="edge1" class="edge">
<title>node0x560d95af1130+&#45;&gt;node0x560d95af1130</title>
<path fill="none" stroke="black" d="M332.1,-57.57C343.81,-62.36 358.52,-68 372,-72.07 379.45,-74.32 387.2,-76.47 395.03,-78.51"/>
<polygon fill="black" stroke="black" points="394.42,-81.96 404.97,-81.02 396.13,-75.18 394.42,-81.96"/>
</g>
<!-- node0x560d95af1930 -->
<g id="node5" class="node">
<title>node0x560d95af1930</title>
<polygon fill="none" stroke="black" points="374,-26.07 374,-62.07 616,-62.07 616,-26.07 374,-26.07"/>
<text text-anchor="middle" x="384.5" y="-40.37" font-family="Times,serif" font-size="14.00"> </text>
<polyline fill="none" stroke="black" points="395,-26.07 395,-62.07 "/>
<text text-anchor="middle" x="450" y="-40.37" font-family="Times,serif" font-size="14.00">data=1.0000</text>
<polyline fill="none" stroke="black" points="505,-26.07 505,-62.07 "/>
<text text-anchor="middle" x="560.5" y="-40.37" font-family="Times,serif" font-size="14.00">grad=0.0000</text>
</g>
<!-- node0x560d95af1930&#45;&gt;node0x560d95af1a30+ -->
<g id="edge6" class="edge">
<title>node0x560d95af1930&#45;&gt;node0x560d95af1a30+</title>
<path fill="none" stroke="black" d="M616.16,-44.07C626.04,-44.07 635.44,-44.07 643.84,-44.07"/>
<polygon fill="black" stroke="black" points="643.9,-47.57 653.9,-44.07 643.9,-40.57 643.9,-47.57"/>
</g>
<!-- node0x560d95af1a30 -->
<g id="node6" class="node">
<title>node0x560d95af1a30</title>
<polygon fill="none" stroke="black" points="744,-2.07 744,-38.07 990,-38.07 990,-2.07 744,-2.07"/>
<text text-anchor="middle" x="754.5" y="-16.37" font-family="Times,serif" font-size="14.00"> </text>
<polyline fill="none" stroke="black" points="765,-2.07 765,-38.07 "/>
<text text-anchor="middle" x="822" y="-16.37" font-family="Times,serif" font-size="14.00">data=&#45;1.0000</text>
<polyline fill="none" stroke="black" points="879,-2.07 879,-38.07 "/>
<text text-anchor="middle" x="934.5" y="-16.37" font-family="Times,serif" font-size="14.00">grad=0.0000</text>
</g>
<!-- node0x560d95af1a30&#45;&gt;node0x560d95af1130+ -->
<g id="edge7" class="edge">
<title>node0x560d95af1a30&#45;&gt;node0x560d95af1130+</title>
<path fill="none" stroke="black" d="M743.95,-17.66C731.8,-17.45 719.66,-17.25 708,-17.07 558.68,-14.83 517.12,19.17 372,-16.07 360.1,-18.96 347.94,-24.56 337.57,-30.27"/>
<polygon fill="black" stroke="black" points="335.5,-27.43 328.61,-35.48 339.02,-33.48 335.5,-27.43"/>
</g>
<!-- node0x560d95af1a30+&#45;&gt;node0x560d95af1a30 -->
<g id="edge2" class="edge">
<title>node0x560d95af1a30+&#45;&gt;node0x560d95af1a30</title>
<path fill="none" stroke="black" d="M707.58,-40.74C715.13,-39.75 723.96,-38.6 733.51,-37.35"/>
<polygon fill="black" stroke="black" points="734.25,-40.79 743.71,-36.02 733.34,-33.85 734.25,-40.79"/>
</g>
</g>
</svg>
