<?xml version="1.0" encoding="UTF-8" standalone="no"?>
<!DOCTYPE svg PUBLIC "-//W3C//DTD SVG 1.1//EN"
 "http://www.w3.org/Graphics/SVG/1.1/DTD/svg11.dtd">
<!-- Generated by graphviz version 2.43.0 (0)
 -->
<!-- Title: G Pages: 1 -->
<svg width="1005pt" height="126pt"
 viewBox="0.00 0.00 1005.00 125.72" xmlns="http://www.w3.org/2000/svg" xmlns:xlink="http://www.w3.org/1999/xlink">
<g id="graph0" class="graph" transform="scale(1 1) rotate(0) translate(4 121.72)">
<title>G</title>
<polygon fill="white" stroke="transparent" points="-4,4 -4,-121.72 1001,-121.72 1001,4 -4,4"/>
<!-- node0x55a7a4822eb0 -->
<g id="node1" class="node">
<title>node0x55a7a4822eb0</title>
<polygon fill="none" stroke="black" points="0,-58.22 0,-94.22 250,-94.22 250,-58.22 0,-58.22"/>
<text text-anchor="middle" x="12.5" y="-72.52" font-family="Times,serif" font-size="14.00">a</text>
<polyline fill="none" stroke="black" points="25,-58.22 25,-94.22 "/>
<text text-anchor="middle" x="82" y="-72.52" font-family="Times,serif" font-size="14.00">data=&#45;4.0000</text>
<polyline fill="none" stroke="black" points="139,-58.22 139,-94.22 "/>
<text text-anchor="middle" x="194.5" y="-72.52" font-family="Times,serif" font-size="14.00">grad=0.0000</text>
</g>
<!-- node0x55a7a4823130+ -->
<g id="node4" class="node">
<title>node0x55a7a4823130+</title>
<ellipse fill="none" stroke="black" cx="313" cy="-48.22" rx="27" ry="18"/>
<text text-anchor="middle" x="313" y="-44.52" font-family="Times,serif" font-size="14.00">+</text>
</g>
<!-- node0x55a7a4822eb0&#45;&gt;node0x55a7a4823130+ -->
<g id="edge3" class="edge">
<title>node0x55a7a4822eb0&#45;&gt;node0x55a7a4823130+</title>
<path fill="none" stroke="black" d="M245.64,-58.21C256.7,-56.54 267.22,-54.96 276.49,-53.57"/>
<polygon fill="black" stroke="black" points="277.01,-57.03 286.38,-52.08 275.97,-50.1 277.01,-57.03"/>
</g>
<!-- node0x55a7a4822fb0 -->
<g id="node2" class="node">
<title>node0x55a7a4822fb0</title>
<polygon fill="none" stroke="black" points="1.5,-3.22 1.5,-39.22 248.5,-39.22 248.5,-3.22 1.5,-3.22"/>
<text text-anchor="middle" x="14.5" y="-17.52" font-family="Times,serif" font-size="14.00">b</text>
<polyline fill="none" stroke="black" points="27.5,-3.22 27.5,-39.22 "/>
<text text-anchor="middle" x="82.5" y="-17.52" font-family="Times,serif" font-size="14.00">data=2.0000</text>
<polyline fill="none" stroke="black" points="137.5,-3.22 137.5,-39.22 "/>
<text text-anchor="middle" x="193" y="-17.52" font-family="Times,serif" font-size="14.00">grad=0.0000</text>
</g>
<!-- node0x55a7a4822fb0&#45;&gt;node0x55a7a4823130+ -->
<g id="edge4" class="edge">
<title>node0x55a7a4822fb0&#45;&gt;node0x55a7a4823130+</title>
<path fill="none" stroke="black" d="M248.51,-39C258.46,-40.45 267.9,-41.82 276.32,-43.04"/>
<polygon fill="black" stroke="black" points="275.99,-46.53 286.39,-44.5 277,-39.6 275.99,-46.53"/>
</g>
<!-- node0x55a7a4823130 -->
<g id="node3" class="node">
<title>node0x55a7a4823130</title>
<polygon fill="none" stroke="black" points="376,-81.22 376,-117.22 625,-117.22 625,-81.22 376,-81.22"/>
<text text-anchor="middle" x="388" y="-95.52" font-family="Times,serif" font-size="14.00">c</text>
<polyline fill="none" stroke="black" points="400,-81.22 400,-117.22 "/>
<text text-anchor="middle" x="457" y="-95.52" font-family="Times,serif" font-size="14.00">data=&#45;3.0000</text>
<polyline fill="none" stroke="black" points="514,-81.22 514,-117.22 "/>
<text text-anchor="middle" x="569.5" y="-95.52" font-family="Times,serif" font-size="14.00">grad=0.0000</text>
</g>
<!-- node0x55a7a4823a30+ -->
<g id="node7" class="node">
<title>node0x55a7a4823a30+</title>
<ellipse fill="none" stroke="black" cx="688" cy="-44.22" rx="27" ry="18"/>
<text text-anchor="middle" x="688" y="-40.52" font-family="Times,serif" font-size="14.00">+</text>
</g>
<!-- node0x55a7a4823130&#45;&gt;node0x55a7a4823a30+ -->
<g id="edge5" class="edge">
<title>node0x55a7a4823130&#45;&gt;node0x55a7a4823a30+</title>
<path fill="none" stroke="black" d="M594.13,-81.18C604.63,-78.49 615.1,-75.5 625,-72.22 635.71,-68.67 647.05,-63.88 657.07,-59.26"/>
<polygon fill="black" stroke="black" points="658.67,-62.37 666.2,-54.93 655.67,-56.05 658.67,-62.37"/>
</g>
<!-- node0x55a7a4823130+&#45;&gt;node0x55a7a4823130 -->
<g id="edge1" class="edge">
<title>node0x55a7a4823130+&#45;&gt;node0x55a7a4823130</title>
<path fill="none" stroke="black" d="M336.09,-57.73C347.8,-62.52 362.52,-68.16 376,-72.22 383.62,-74.51 391.56,-76.7 399.57,-78.76"/>
<polygon fill="black" stroke="black" points="398.82,-82.18 409.37,-81.21 400.52,-75.39 398.82,-82.18"/>
</g>
<!-- node0x55a7a4823930 -->
<g id="node5" class="node">
<title>node0x55a7a4823930</title>
<polygon fill="none" stroke="black" points="379.5,-26.22 379.5,-62.22 621.5,-62.22 621.5,-26.22 379.5,-26.22"/>
<text text-anchor="middle" x="390" y="-40.52" font-family="Times,serif" font-size="14.00"> </text>
<polyline fill="none" stroke="black" points="400.5,-26.22 400.5,-62.22 "/>
<text text-anchor="middle" x="455.5" y="-40.52" font-family="Times,serif" font-size="14.00">data=1.0000</text>
<polyline fill="none" stroke="black" points="510.5,-26.22 510.5,-62.22 "/>
<text text-anchor="middle" x="566" y="-40.52" font-family="Times,serif" font-size="14.00">grad=0.0000</text>
</g>
<!-- node0x55a7a4823930&#45;&gt;node0x55a7a4823a30+ -->
<g id="edge6" class="edge">
<title>node0x55a7a4823930&#45;&gt;node0x55a7a4823a30+</title>
<path fill="none" stroke="black" d="M621.6,-44.22C632,-44.22 641.89,-44.22 650.69,-44.22"/>
<polygon fill="black" stroke="black" points="650.85,-47.72 660.85,-44.22 650.85,-40.72 650.85,-47.72"/>
</g>
<!-- node0x55a7a4823a30 -->
<g id="node6" class="node">
<title>node0x55a7a4823a30</title>
<polygon fill="none" stroke="black" points="751,-2.22 751,-38.22 997,-38.22 997,-2.22 751,-2.22"/>
<text text-anchor="middle" x="761.5" y="-16.52" font-family="Times,serif" font-size="14.00"> </text>
<polyline fill="none" stroke="black" points="772,-2.22 772,-38.22 "/>
<text text-anchor="middle" x="829" y="-16.52" font-family="Times,serif" font-size="14.00">data=&#45;1.0000</text>
<polyline fill="none" stroke="black" points="886,-2.22 886,-38.22 "/>
<text text-anchor="middle" x="941.5" y="-16.52" font-family="Times,serif" font-size="14.00">grad=0.0000</text>
</g>
<!-- node0x55a7a4823a30&#45;&gt;node0x55a7a4823130+ -->
<g id="edge7" class="edge">
<title>node0x55a7a4823a30&#45;&gt;node0x55a7a4823130+</title>
<path fill="none" stroke="black" d="M750.95,-17.81C738.8,-17.59 726.66,-17.39 715,-17.22 564.35,-14.95 522.41,19.34 376,-16.22 364.1,-19.11 351.94,-24.7 341.57,-30.42"/>
<polygon fill="black" stroke="black" points="339.5,-27.57 332.61,-35.62 343.02,-33.63 339.5,-27.57"/>
</g>
<!-- node0x55a7a4823a30+&#45;&gt;node0x55a7a4823a30 -->
<g id="edge2" class="edge">
<title>node0x55a7a4823a30+&#45;&gt;node0x55a7a4823a30</title>
<path fill="none" stroke="black" d="M714.58,-40.88C722.13,-39.9 730.96,-38.75 740.51,-37.5"/>
<polygon fill="black" stroke="black" points="741.25,-40.93 750.71,-36.17 740.34,-33.99 741.25,-40.93"/>
</g>
</g>
</svg>
