<?xml version="1.0" encoding="UTF-8" standalone="no"?>
<!DOCTYPE svg PUBLIC "-//W3C//DTD SVG 1.1//EN"
 "http://www.w3.org/Graphics/SVG/1.1/DTD/svg11.dtd">
<!-- Generated by graphviz version 2.43.0 (0)
 -->
<!-- Title: G Pages: 1 -->
<svg width="1377pt" height="128pt"
 viewBox="0.00 0.00 1377.00 128.00" xmlns="http://www.w3.org/2000/svg" xmlns:xlink="http://www.w3.org/1999/xlink">
<g id="graph0" class="graph" transform="scale(1 1) rotate(0) translate(4 124)">
<title>G</title>
<polygon fill="white" stroke="transparent" points="-4,4 -4,-124 1373,-124 1373,4 -4,4"/>
<!-- node0x56434b372eb0 -->
<g id="node1" class="node">
<title>node0x56434b372eb0</title>
<polygon fill="none" stroke="black" points="0,-83.5 0,-119.5 250,-119.5 250,-83.5 0,-83.5"/>
<text text-anchor="middle" x="12.5" y="-97.8" font-family="Times,serif" font-size="14.00">a</text>
<polyline fill="none" stroke="black" points="25,-83.5 25,-119.5 "/>
<text text-anchor="middle" x="82" y="-97.8" font-family="Times,serif" font-size="14.00">data=&#45;4.0000</text>
<polyline fill="none" stroke="black" points="139,-83.5 139,-119.5 "/>
<text text-anchor="middle" x="194.5" y="-97.8" font-family="Times,serif" font-size="14.00">grad=0.0000</text>
</g>
<!-- node0x56434b373bf0+ -->
<g id="node9" class="node">
<title>node0x56434b373bf0+</title>
<ellipse fill="none" stroke="black" cx="313" cy="-73.5" rx="27" ry="18"/>
<text text-anchor="middle" x="313" y="-69.8" font-family="Times,serif" font-size="14.00">+</text>
</g>
<!-- node0x56434b372eb0&#45;&gt;node0x56434b373bf0+ -->
<g id="edge4" class="edge">
<title>node0x56434b372eb0&#45;&gt;node0x56434b373bf0+</title>
<path fill="none" stroke="black" d="M245.64,-83.49C256.7,-81.82 267.22,-80.24 276.49,-78.85"/>
<polygon fill="black" stroke="black" points="277.01,-82.31 286.38,-77.36 275.97,-75.38 277.01,-82.31"/>
</g>
<!-- node0x56434b372fb0 -->
<g id="node2" class="node">
<title>node0x56434b372fb0</title>
<polygon fill="none" stroke="black" points="1.5,-28.5 1.5,-64.5 248.5,-64.5 248.5,-28.5 1.5,-28.5"/>
<text text-anchor="middle" x="14.5" y="-42.8" font-family="Times,serif" font-size="14.00">b</text>
<polyline fill="none" stroke="black" points="27.5,-28.5 27.5,-64.5 "/>
<text text-anchor="middle" x="82.5" y="-42.8" font-family="Times,serif" font-size="14.00">data=2.0000</text>
<polyline fill="none" stroke="black" points="137.5,-28.5 137.5,-64.5 "/>
<text text-anchor="middle" x="193" y="-42.8" font-family="Times,serif" font-size="14.00">grad=0.0000</text>
</g>
<!-- node0x56434b372fb0&#45;&gt;node0x56434b373bf0+ -->
<g id="edge5" class="edge">
<title>node0x56434b372fb0&#45;&gt;node0x56434b373bf0+</title>
<path fill="none" stroke="black" d="M248.51,-64.28C258.46,-65.73 267.9,-67.1 276.32,-68.32"/>
<polygon fill="black" stroke="black" points="275.99,-71.81 286.39,-69.78 277,-64.88 275.99,-71.81"/>
</g>
<!-- node0x56434b373130 -->
<g id="node3" class="node">
<title>node0x56434b373130</title>
<polygon fill="none" stroke="black" points="1123,-31.5 1123,-67.5 1369,-67.5 1369,-31.5 1123,-31.5"/>
<text text-anchor="middle" x="1133.5" y="-45.8" font-family="Times,serif" font-size="14.00"> </text>
<polyline fill="none" stroke="black" points="1144,-31.5 1144,-67.5 "/>
<text text-anchor="middle" x="1201" y="-45.8" font-family="Times,serif" font-size="14.00">data=&#45;3.0000</text>
<polyline fill="none" stroke="black" points="1258,-31.5 1258,-67.5 "/>
<text text-anchor="middle" x="1313.5" y="-45.8" font-family="Times,serif" font-size="14.00">grad=0.0000</text>
</g>
<!-- node0x56434b373130+ -->
<g id="node4" class="node">
<title>node0x56434b373130+</title>
<ellipse fill="none" stroke="black" cx="1060" cy="-49.5" rx="27" ry="18"/>
<text text-anchor="middle" x="1060" y="-45.8" font-family="Times,serif" font-size="14.00">+</text>
</g>
<!-- node0x56434b373130+&#45;&gt;node0x56434b373130 -->
<g id="edge1" class="edge">
<title>node0x56434b373130+&#45;&gt;node0x56434b373130</title>
<path fill="none" stroke="black" d="M1087.36,-49.5C1094.73,-49.5 1103.28,-49.5 1112.5,-49.5"/>
<polygon fill="black" stroke="black" points="1112.75,-53 1122.75,-49.5 1112.75,-46 1112.75,-53"/>
</g>
<!-- node0x56434b373930 -->
<g id="node5" class="node">
<title>node0x56434b373930</title>
<polygon fill="none" stroke="black" points="379.5,-0.5 379.5,-36.5 621.5,-36.5 621.5,-0.5 379.5,-0.5"/>
<text text-anchor="middle" x="390" y="-14.8" font-family="Times,serif" font-size="14.00"> </text>
<polyline fill="none" stroke="black" points="400.5,-0.5 400.5,-36.5 "/>
<text text-anchor="middle" x="455.5" y="-14.8" font-family="Times,serif" font-size="14.00">data=1.0000</text>
<polyline fill="none" stroke="black" points="510.5,-0.5 510.5,-36.5 "/>
<text text-anchor="middle" x="566" y="-14.8" font-family="Times,serif" font-size="14.00">grad=0.0000</text>
</g>
<!-- node0x56434b373a30+ -->
<g id="node7" class="node">
<title>node0x56434b373a30+</title>
<ellipse fill="none" stroke="black" cx="688" cy="-26.5" rx="27" ry="18"/>
<text text-anchor="middle" x="688" y="-22.8" font-family="Times,serif" font-size="14.00">+</text>
</g>
<!-- node0x56434b373930&#45;&gt;node0x56434b373a30+ -->
<g id="edge6" class="edge">
<title>node0x56434b373930&#45;&gt;node0x56434b373a30+</title>
<path fill="none" stroke="black" d="M621.6,-23.68C632,-24.13 641.89,-24.55 650.69,-24.93"/>
<polygon fill="black" stroke="black" points="650.71,-28.44 660.85,-25.37 651.01,-21.44 650.71,-28.44"/>
</g>
<!-- node0x56434b373a30 -->
<g id="node6" class="node">
<title>node0x56434b373a30</title>
<polygon fill="none" stroke="black" points="751,-8.5 751,-44.5 997,-44.5 997,-8.5 751,-8.5"/>
<text text-anchor="middle" x="761.5" y="-22.8" font-family="Times,serif" font-size="14.00"> </text>
<polyline fill="none" stroke="black" points="772,-8.5 772,-44.5 "/>
<text text-anchor="middle" x="829" y="-22.8" font-family="Times,serif" font-size="14.00">data=&#45;1.0000</text>
<polyline fill="none" stroke="black" points="886,-8.5 886,-44.5 "/>
<text text-anchor="middle" x="941.5" y="-22.8" font-family="Times,serif" font-size="14.00">grad=0.0000</text>
</g>
<!-- node0x56434b373a30&#45;&gt;node0x56434b373130+ -->
<g id="edge7" class="edge">
<title>node0x56434b373a30&#45;&gt;node0x56434b373130+</title>
<path fill="none" stroke="black" d="M997.22,-41.78C1006.44,-42.93 1015.2,-44.02 1023.08,-45.01"/>
<polygon fill="black" stroke="black" points="1022.87,-48.51 1033.23,-46.28 1023.74,-41.56 1022.87,-48.51"/>
</g>
<!-- node0x56434b373a30+&#45;&gt;node0x56434b373a30 -->
<g id="edge2" class="edge">
<title>node0x56434b373a30+&#45;&gt;node0x56434b373a30</title>
<path fill="none" stroke="black" d="M715.36,-26.5C722.73,-26.5 731.28,-26.5 740.5,-26.5"/>
<polygon fill="black" stroke="black" points="740.75,-30 750.75,-26.5 740.75,-23 740.75,-30"/>
</g>
<!-- node0x56434b373bf0 -->
<g id="node8" class="node">
<title>node0x56434b373bf0</title>
<polygon fill="none" stroke="black" points="376,-55.5 376,-91.5 625,-91.5 625,-55.5 376,-55.5"/>
<text text-anchor="middle" x="388" y="-69.8" font-family="Times,serif" font-size="14.00">c</text>
<polyline fill="none" stroke="black" points="400,-55.5 400,-91.5 "/>
<text text-anchor="middle" x="457" y="-69.8" font-family="Times,serif" font-size="14.00">data=&#45;2.0000</text>
<polyline fill="none" stroke="black" points="514,-55.5 514,-91.5 "/>
<text text-anchor="middle" x="569.5" y="-69.8" font-family="Times,serif" font-size="14.00">grad=0.0000</text>
</g>
<!-- node0x56434b373bf0&#45;&gt;node0x56434b373130+ -->
<g id="edge8" class="edge">
<title>node0x56434b373bf0&#45;&gt;node0x56434b373130+</title>
<path fill="none" stroke="black" d="M625.02,-70.21C725.31,-67.19 870.35,-62.03 997,-54.5 1005.43,-54 1014.5,-53.34 1023.02,-52.66"/>
<polygon fill="black" stroke="black" points="1023.39,-56.14 1033.07,-51.84 1022.82,-49.16 1023.39,-56.14"/>
</g>
<!-- node0x56434b373bf0&#45;&gt;node0x56434b373a30+ -->
<g id="edge9" class="edge">
<title>node0x56434b373bf0&#45;&gt;node0x56434b373a30+</title>
<path fill="none" stroke="black" d="M589.13,-55.44C601.22,-52.63 613.45,-49.62 625,-46.5 634.46,-43.95 644.62,-40.83 653.92,-37.82"/>
<polygon fill="black" stroke="black" points="655.2,-41.09 663.61,-34.64 653.01,-34.44 655.2,-41.09"/>
</g>
<!-- node0x56434b373bf0+&#45;&gt;node0x56434b373bf0 -->
<g id="edge3" class="edge">
<title>node0x56434b373bf0+&#45;&gt;node0x56434b373bf0</title>
<path fill="none" stroke="black" d="M340.18,-73.5C347.67,-73.5 356.38,-73.5 365.79,-73.5"/>
<polygon fill="black" stroke="black" points="365.84,-77 375.84,-73.5 365.84,-70 365.84,-77"/>
</g>
</g>
</svg>
