<?xml version="1.0" encoding="UTF-8" standalone="no"?>
<!DOCTYPE svg PUBLIC "-//W3C//DTD SVG 1.1//EN"
 "http://www.w3.org/Graphics/SVG/1.1/DTD/svg11.dtd">
<!-- Generated by graphviz version 2.43.0 (0)
 -->
<!-- Title: G Pages: 1 -->
<svg width="1389pt" height="156pt"
 viewBox="0.00 0.00 1389.00 156.00" xmlns="http://www.w3.org/2000/svg" xmlns:xlink="http://www.w3.org/1999/xlink">
<g id="graph0" class="graph" transform="scale(1 1) rotate(0) translate(4 152)">
<title>G</title>
<polygon fill="white" stroke="transparent" points="-4,4 -4,-152 1385,-152 1385,4 -4,4"/>
<!-- node0x561d478f3eb0 -->
<g id="node1" class="node">
<title>node0x561d478f3eb0</title>
<polygon fill="none" stroke="black" points="2.5,-111.5 2.5,-147.5 248.5,-147.5 248.5,-111.5 2.5,-111.5"/>
<text text-anchor="middle" x="15" y="-125.8" font-family="Times,serif" font-size="14.00">a</text>
<polyline fill="none" stroke="black" points="27.5,-111.5 27.5,-147.5 "/>
<text text-anchor="middle" x="82.5" y="-125.8" font-family="Times,serif" font-size="14.00">data=2.0000</text>
<polyline fill="none" stroke="black" points="137.5,-111.5 137.5,-147.5 "/>
<text text-anchor="middle" x="193" y="-125.8" font-family="Times,serif" font-size="14.00">grad=0.0000</text>
</g>
<!-- node0x561d478f4230* -->
<g id="node5" class="node">
<title>node0x561d478f4230*</title>
<ellipse fill="none" stroke="black" cx="314" cy="-101.5" rx="27" ry="18"/>
<text text-anchor="middle" x="314" y="-97.8" font-family="Times,serif" font-size="14.00">*</text>
</g>
<!-- node0x561d478f3eb0&#45;&gt;node0x561d478f4230* -->
<g id="edge4" class="edge">
<title>node0x561d478f3eb0&#45;&gt;node0x561d478f4230*</title>
<path fill="none" stroke="black" d="M246.46,-111.49C257.56,-109.82 268.1,-108.24 277.39,-106.85"/>
<polygon fill="black" stroke="black" points="277.94,-110.3 287.31,-105.36 276.9,-103.38 277.94,-110.3"/>
</g>
<!-- node0x561d478f3fb0 -->
<g id="node2" class="node">
<title>node0x561d478f3fb0</title>
<polygon fill="none" stroke="black" points="0,-56.5 0,-92.5 251,-92.5 251,-56.5 0,-56.5"/>
<text text-anchor="middle" x="13" y="-70.8" font-family="Times,serif" font-size="14.00">b</text>
<polyline fill="none" stroke="black" points="26,-56.5 26,-92.5 "/>
<text text-anchor="middle" x="83" y="-70.8" font-family="Times,serif" font-size="14.00">data=&#45;3.0000</text>
<polyline fill="none" stroke="black" points="140,-56.5 140,-92.5 "/>
<text text-anchor="middle" x="195.5" y="-70.8" font-family="Times,serif" font-size="14.00">grad=0.0000</text>
</g>
<!-- node0x561d478f3fb0&#45;&gt;node0x561d478f4230* -->
<g id="edge5" class="edge">
<title>node0x561d478f3fb0&#45;&gt;node0x561d478f4230*</title>
<path fill="none" stroke="black" d="M250.9,-92.51C260.38,-93.88 269.37,-95.18 277.42,-96.35"/>
<polygon fill="black" stroke="black" points="277.02,-99.83 287.42,-97.8 278.02,-92.9 277.02,-99.83"/>
</g>
<!-- node0x561d478f40b0 -->
<g id="node3" class="node">
<title>node0x561d478f40b0</title>
<polygon fill="none" stroke="black" points="377,-28.5 377,-64.5 631,-64.5 631,-28.5 377,-28.5"/>
<text text-anchor="middle" x="389" y="-42.8" font-family="Times,serif" font-size="14.00">c</text>
<polyline fill="none" stroke="black" points="401,-28.5 401,-64.5 "/>
<text text-anchor="middle" x="460.5" y="-42.8" font-family="Times,serif" font-size="14.00">data=10.0000</text>
<polyline fill="none" stroke="black" points="520,-28.5 520,-64.5 "/>
<text text-anchor="middle" x="575.5" y="-42.8" font-family="Times,serif" font-size="14.00">grad=0.0000</text>
</g>
<!-- node0x561d478f43f0+ -->
<g id="node7" class="node">
<title>node0x561d478f43f0+</title>
<ellipse fill="none" stroke="black" cx="694" cy="-73.5" rx="27" ry="18"/>
<text text-anchor="middle" x="694" y="-69.8" font-family="Times,serif" font-size="14.00">+</text>
</g>
<!-- node0x561d478f40b0&#45;&gt;node0x561d478f43f0+ -->
<g id="edge6" class="edge">
<title>node0x561d478f40b0&#45;&gt;node0x561d478f43f0+</title>
<path fill="none" stroke="black" d="M630.4,-64.51C640.05,-65.89 649.2,-67.21 657.37,-68.38"/>
<polygon fill="black" stroke="black" points="657.12,-71.88 667.51,-69.84 658.11,-64.95 657.12,-71.88"/>
</g>
<!-- node0x561d478f4230 -->
<g id="node4" class="node">
<title>node0x561d478f4230</title>
<polygon fill="none" stroke="black" points="379,-83.5 379,-119.5 629,-119.5 629,-83.5 379,-83.5"/>
<text text-anchor="middle" x="391.5" y="-97.8" font-family="Times,serif" font-size="14.00">e</text>
<polyline fill="none" stroke="black" points="404,-83.5 404,-119.5 "/>
<text text-anchor="middle" x="461" y="-97.8" font-family="Times,serif" font-size="14.00">data=&#45;6.0000</text>
<polyline fill="none" stroke="black" points="518,-83.5 518,-119.5 "/>
<text text-anchor="middle" x="573.5" y="-97.8" font-family="Times,serif" font-size="14.00">grad=0.0000</text>
</g>
<!-- node0x561d478f4230&#45;&gt;node0x561d478f43f0+ -->
<g id="edge7" class="edge">
<title>node0x561d478f4230&#45;&gt;node0x561d478f43f0+</title>
<path fill="none" stroke="black" d="M625.92,-83.49C637.21,-81.81 647.94,-80.21 657.37,-78.81"/>
<polygon fill="black" stroke="black" points="658.04,-82.24 667.42,-77.31 657.01,-75.32 658.04,-82.24"/>
</g>
<!-- node0x561d478f4230*&#45;&gt;node0x561d478f4230 -->
<g id="edge1" class="edge">
<title>node0x561d478f4230*&#45;&gt;node0x561d478f4230</title>
<path fill="none" stroke="black" d="M341.14,-101.5C349.17,-101.5 358.61,-101.5 368.83,-101.5"/>
<polygon fill="black" stroke="black" points="368.85,-105 378.85,-101.5 368.85,-98 368.85,-105"/>
</g>
<!-- node0x561d478f43f0 -->
<g id="node6" class="node">
<title>node0x561d478f43f0</title>
<polygon fill="none" stroke="black" points="757,-55.5 757,-91.5 1004,-91.5 1004,-55.5 757,-55.5"/>
<text text-anchor="middle" x="770" y="-69.8" font-family="Times,serif" font-size="14.00">d</text>
<polyline fill="none" stroke="black" points="783,-55.5 783,-91.5 "/>
<text text-anchor="middle" x="838" y="-69.8" font-family="Times,serif" font-size="14.00">data=4.0000</text>
<polyline fill="none" stroke="black" points="893,-55.5 893,-91.5 "/>
<text text-anchor="middle" x="948.5" y="-69.8" font-family="Times,serif" font-size="14.00">grad=0.0000</text>
</g>
<!-- node0x561d478f46b0* -->
<g id="node10" class="node">
<title>node0x561d478f46b0*</title>
<ellipse fill="none" stroke="black" cx="1067" cy="-45.5" rx="27" ry="18"/>
<text text-anchor="middle" x="1067" y="-41.8" font-family="Times,serif" font-size="14.00">*</text>
</g>
<!-- node0x561d478f43f0&#45;&gt;node0x561d478f46b0* -->
<g id="edge8" class="edge">
<title>node0x561d478f43f0&#45;&gt;node0x561d478f46b0*</title>
<path fill="none" stroke="black" d="M1000.17,-55.49C1011.03,-53.84 1021.36,-52.27 1030.48,-50.89"/>
<polygon fill="black" stroke="black" points="1031.22,-54.32 1040.59,-49.36 1030.17,-47.4 1031.22,-54.32"/>
</g>
<!-- node0x561d478f43f0+&#45;&gt;node0x561d478f43f0 -->
<g id="edge2" class="edge">
<title>node0x561d478f43f0+&#45;&gt;node0x561d478f43f0</title>
<path fill="none" stroke="black" d="M721.04,-73.5C728.56,-73.5 737.32,-73.5 746.79,-73.5"/>
<polygon fill="black" stroke="black" points="746.89,-77 756.89,-73.5 746.89,-70 746.89,-77"/>
</g>
<!-- node0x561d478f45b0 -->
<g id="node8" class="node">
<title>node0x561d478f45b0</title>
<polygon fill="none" stroke="black" points="757,-0.5 757,-36.5 1004,-36.5 1004,-0.5 757,-0.5"/>
<text text-anchor="middle" x="768" y="-14.8" font-family="Times,serif" font-size="14.00">f</text>
<polyline fill="none" stroke="black" points="779,-0.5 779,-36.5 "/>
<text text-anchor="middle" x="836" y="-14.8" font-family="Times,serif" font-size="14.00">data=&#45;2.0000</text>
<polyline fill="none" stroke="black" points="893,-0.5 893,-36.5 "/>
<text text-anchor="middle" x="948.5" y="-14.8" font-family="Times,serif" font-size="14.00">grad=0.0000</text>
</g>
<!-- node0x561d478f45b0&#45;&gt;node0x561d478f46b0* -->
<g id="edge9" class="edge">
<title>node0x561d478f45b0&#45;&gt;node0x561d478f46b0*</title>
<path fill="none" stroke="black" d="M1004.05,-36.43C1013.49,-37.82 1022.46,-39.13 1030.48,-40.3"/>
<polygon fill="black" stroke="black" points="1030.06,-43.78 1040.46,-41.76 1031.07,-36.85 1030.06,-43.78"/>
</g>
<!-- node0x561d478f46b0 -->
<g id="node9" class="node">
<title>node0x561d478f46b0</title>
<polygon fill="none" stroke="black" points="1130,-27.5 1130,-63.5 1381,-63.5 1381,-27.5 1130,-27.5"/>
<text text-anchor="middle" x="1143" y="-41.8" font-family="Times,serif" font-size="14.00">L</text>
<polyline fill="none" stroke="black" points="1156,-27.5 1156,-63.5 "/>
<text text-anchor="middle" x="1213" y="-41.8" font-family="Times,serif" font-size="14.00">data=&#45;8.0000</text>
<polyline fill="none" stroke="black" points="1270,-27.5 1270,-63.5 "/>
<text text-anchor="middle" x="1325.5" y="-41.8" font-family="Times,serif" font-size="14.00">grad=0.0000</text>
</g>
<!-- node0x561d478f46b0*&#45;&gt;node0x561d478f46b0 -->
<g id="edge3" class="edge">
<title>node0x561d478f46b0*&#45;&gt;node0x561d478f46b0</title>
<path fill="none" stroke="black" d="M1094.33,-45.5C1101.7,-45.5 1110.25,-45.5 1119.5,-45.5"/>
<polygon fill="black" stroke="black" points="1119.77,-49 1129.77,-45.5 1119.77,-42 1119.77,-49"/>
</g>
</g>
</svg>
