<?xml version="1.0" encoding="UTF-8" standalone="no"?>
<!DOCTYPE svg PUBLIC "-//W3C//DTD SVG 1.1//EN"
 "http://www.w3.org/Graphics/SVG/1.1/DTD/svg11.dtd">
<!-- Generated by graphviz version 2.43.0 (0)
 -->
<!-- Title: G Pages: 1 -->
<svg width="1895pt" height="210pt"
 viewBox="0.00 0.00 1894.69 210.00" xmlns="http://www.w3.org/2000/svg" xmlns:xlink="http://www.w3.org/1999/xlink">
<g id="graph0" class="graph" transform="scale(1 1) rotate(0) translate(4 206)">
<title>G</title>
<polygon fill="white" stroke="transparent" points="-4,4 -4,-206 1890.69,-206 1890.69,4 -4,4"/>
<!-- node0x55fe2e941eb0 -->
<g id="node1" class="node">
<title>node0x55fe2e941eb0</title>
<polygon fill="none" stroke="black" points="1.5,-165.5 1.5,-201.5 261.5,-201.5 261.5,-165.5 1.5,-165.5"/>
<text text-anchor="middle" x="18.5" y="-179.8" font-family="Times,serif" font-size="14.00">x1</text>
<polyline fill="none" stroke="black" points="35.5,-165.5 35.5,-201.5 "/>
<text text-anchor="middle" x="90.5" y="-179.8" font-family="Times,serif" font-size="14.00">data=2.0000</text>
<polyline fill="none" stroke="black" points="145.5,-165.5 145.5,-201.5 "/>
<text text-anchor="middle" x="203.5" y="-179.8" font-family="Times,serif" font-size="14.00">grad=&#45;1.5000</text>
</g>
<!-- node0x55fe2e942430* -->
<g id="node7" class="node">
<title>node0x55fe2e942430*</title>
<ellipse fill="none" stroke="black" cx="326" cy="-128.5" rx="27" ry="18"/>
<text text-anchor="middle" x="326" y="-124.8" font-family="Times,serif" font-size="14.00">*</text>
</g>
<!-- node0x55fe2e941eb0&#45;&gt;node0x55fe2e942430* -->
<g id="edge6" class="edge">
<title>node0x55fe2e941eb0&#45;&gt;node0x55fe2e942430*</title>
<path fill="none" stroke="black" d="M231.44,-165.44C242.18,-162.77 252.88,-159.79 263,-156.5 273.73,-153.02 285.08,-148.24 295.09,-143.61"/>
<polygon fill="black" stroke="black" points="296.69,-146.72 304.22,-139.27 293.69,-140.4 296.69,-146.72"/>
</g>
<!-- node0x55fe2e941fb0 -->
<g id="node2" class="node">
<title>node0x55fe2e941fb0</title>
<polygon fill="none" stroke="black" points="4,-55.5 4,-91.5 259,-91.5 259,-55.5 4,-55.5"/>
<text text-anchor="middle" x="21" y="-69.8" font-family="Times,serif" font-size="14.00">x2</text>
<polyline fill="none" stroke="black" points="38,-55.5 38,-91.5 "/>
<text text-anchor="middle" x="93" y="-69.8" font-family="Times,serif" font-size="14.00">data=0.0000</text>
<polyline fill="none" stroke="black" points="148,-55.5 148,-91.5 "/>
<text text-anchor="middle" x="203.5" y="-69.8" font-family="Times,serif" font-size="14.00">grad=0.5000</text>
</g>
<!-- node0x55fe2e9425f0* -->
<g id="node9" class="node">
<title>node0x55fe2e9425f0*</title>
<ellipse fill="none" stroke="black" cx="326" cy="-73.5" rx="27" ry="18"/>
<text text-anchor="middle" x="326" y="-69.8" font-family="Times,serif" font-size="14.00">*</text>
</g>
<!-- node0x55fe2e941fb0&#45;&gt;node0x55fe2e9425f0* -->
<g id="edge7" class="edge">
<title>node0x55fe2e941fb0&#45;&gt;node0x55fe2e9425f0*</title>
<path fill="none" stroke="black" d="M259.02,-73.5C269.57,-73.5 279.57,-73.5 288.46,-73.5"/>
<polygon fill="black" stroke="black" points="288.7,-77 298.7,-73.5 288.7,-70 288.7,-77"/>
</g>
<!-- node0x55fe2e9420b0 -->
<g id="node3" class="node">
<title>node0x55fe2e9420b0</title>
<polygon fill="none" stroke="black" points="0,-110.5 0,-146.5 263,-146.5 263,-110.5 0,-110.5"/>
<text text-anchor="middle" x="19" y="-124.8" font-family="Times,serif" font-size="14.00">w1</text>
<polyline fill="none" stroke="black" points="38,-110.5 38,-146.5 "/>
<text text-anchor="middle" x="95" y="-124.8" font-family="Times,serif" font-size="14.00">data=&#45;3.0000</text>
<polyline fill="none" stroke="black" points="152,-110.5 152,-146.5 "/>
<text text-anchor="middle" x="207.5" y="-124.8" font-family="Times,serif" font-size="14.00">grad=1.0000</text>
</g>
<!-- node0x55fe2e9420b0&#45;&gt;node0x55fe2e942430* -->
<g id="edge8" class="edge">
<title>node0x55fe2e9420b0&#45;&gt;node0x55fe2e942430*</title>
<path fill="none" stroke="black" d="M263.03,-128.5C272.25,-128.5 280.99,-128.5 288.84,-128.5"/>
<polygon fill="black" stroke="black" points="288.95,-132 298.95,-128.5 288.95,-125 288.95,-132"/>
</g>
<!-- node0x55fe2e9421b0 -->
<g id="node4" class="node">
<title>node0x55fe2e9421b0</title>
<polygon fill="none" stroke="black" points="2,-0.5 2,-36.5 261,-36.5 261,-0.5 2,-0.5"/>
<text text-anchor="middle" x="21" y="-14.8" font-family="Times,serif" font-size="14.00">w2</text>
<polyline fill="none" stroke="black" points="40,-0.5 40,-36.5 "/>
<text text-anchor="middle" x="95" y="-14.8" font-family="Times,serif" font-size="14.00">data=1.0000</text>
<polyline fill="none" stroke="black" points="150,-0.5 150,-36.5 "/>
<text text-anchor="middle" x="205.5" y="-14.8" font-family="Times,serif" font-size="14.00">grad=0.0000</text>
</g>
<!-- node0x55fe2e9421b0&#45;&gt;node0x55fe2e9425f0* -->
<g id="edge9" class="edge">
<title>node0x55fe2e9421b0&#45;&gt;node0x55fe2e9425f0*</title>
<path fill="none" stroke="black" d="M227.53,-36.56C239.57,-39.53 251.64,-42.85 263,-46.5 273.48,-49.87 284.6,-54.39 294.48,-58.77"/>
<polygon fill="black" stroke="black" points="293.33,-62.09 303.89,-63.05 296.24,-55.72 293.33,-62.09"/>
</g>
<!-- node0x55fe2e9422b0 -->
<g id="node5" class="node">
<title>node0x55fe2e9422b0</title>
<polygon fill="none" stroke="black" points="843.5,-27.5 843.5,-63.5 1090.5,-63.5 1090.5,-27.5 843.5,-27.5"/>
<text text-anchor="middle" x="856.5" y="-41.8" font-family="Times,serif" font-size="14.00">b</text>
<polyline fill="none" stroke="black" points="869.5,-27.5 869.5,-63.5 "/>
<text text-anchor="middle" x="924.5" y="-41.8" font-family="Times,serif" font-size="14.00">data=6.8814</text>
<polyline fill="none" stroke="black" points="979.5,-27.5 979.5,-63.5 "/>
<text text-anchor="middle" x="1035" y="-41.8" font-family="Times,serif" font-size="14.00">grad=0.5000</text>
</g>
<!-- node0x55fe2e942970+ -->
<g id="node13" class="node">
<title>node0x55fe2e942970+</title>
<ellipse fill="none" stroke="black" cx="1195" cy="-72.5" rx="27" ry="18"/>
<text text-anchor="middle" x="1195" y="-68.8" font-family="Times,serif" font-size="14.00">+</text>
</g>
<!-- node0x55fe2e9422b0&#45;&gt;node0x55fe2e942970+ -->
<g id="edge10" class="edge">
<title>node0x55fe2e9422b0&#45;&gt;node0x55fe2e942970+</title>
<path fill="none" stroke="black" d="M1090.59,-60.15C1115.34,-63.1 1139.47,-65.99 1158.19,-68.22"/>
<polygon fill="black" stroke="black" points="1157.93,-71.72 1168.28,-69.43 1158.76,-64.77 1157.93,-71.72"/>
</g>
<!-- node0x55fe2e942430 -->
<g id="node6" class="node">
<title>node0x55fe2e942430</title>
<polygon fill="none" stroke="black" points="389,-110.5 389,-146.5 676,-146.5 676,-110.5 389,-110.5"/>
<text text-anchor="middle" x="420" y="-124.8" font-family="Times,serif" font-size="14.00">x1*w1</text>
<polyline fill="none" stroke="black" points="451,-110.5 451,-146.5 "/>
<text text-anchor="middle" x="508" y="-124.8" font-family="Times,serif" font-size="14.00">data=&#45;6.0000</text>
<polyline fill="none" stroke="black" points="565,-110.5 565,-146.5 "/>
<text text-anchor="middle" x="620.5" y="-124.8" font-family="Times,serif" font-size="14.00">grad=0.5000</text>
</g>
<!-- node0x55fe2e9427b0+ -->
<g id="node11" class="node">
<title>node0x55fe2e9427b0+</title>
<ellipse fill="none" stroke="black" cx="739" cy="-100.5" rx="27" ry="18"/>
<text text-anchor="middle" x="739" y="-96.8" font-family="Times,serif" font-size="14.00">+</text>
</g>
<!-- node0x55fe2e942430&#45;&gt;node0x55fe2e9427b0+ -->
<g id="edge11" class="edge">
<title>node0x55fe2e942430&#45;&gt;node0x55fe2e9427b0+</title>
<path fill="none" stroke="black" d="M665.04,-110.49C678.55,-108.64 691.32,-106.89 702.28,-105.39"/>
<polygon fill="black" stroke="black" points="702.78,-108.86 712.21,-104.03 701.83,-101.92 702.78,-108.86"/>
</g>
<!-- node0x55fe2e942430*&#45;&gt;node0x55fe2e942430 -->
<g id="edge1" class="edge">
<title>node0x55fe2e942430*&#45;&gt;node0x55fe2e942430</title>
<path fill="none" stroke="black" d="M353.32,-128.5C360.76,-128.5 369.44,-128.5 378.88,-128.5"/>
<polygon fill="black" stroke="black" points="378.97,-132 388.97,-128.5 378.97,-125 378.97,-132"/>
</g>
<!-- node0x55fe2e9425f0 -->
<g id="node8" class="node">
<title>node0x55fe2e9425f0</title>
<polygon fill="none" stroke="black" points="391,-55.5 391,-91.5 674,-91.5 674,-55.5 391,-55.5"/>
<text text-anchor="middle" x="422" y="-69.8" font-family="Times,serif" font-size="14.00">x2*w2</text>
<polyline fill="none" stroke="black" points="453,-55.5 453,-91.5 "/>
<text text-anchor="middle" x="508" y="-69.8" font-family="Times,serif" font-size="14.00">data=0.0000</text>
<polyline fill="none" stroke="black" points="563,-55.5 563,-91.5 "/>
<text text-anchor="middle" x="618.5" y="-69.8" font-family="Times,serif" font-size="14.00">grad=0.5000</text>
</g>
<!-- node0x55fe2e9425f0&#45;&gt;node0x55fe2e9427b0+ -->
<g id="edge12" class="edge">
<title>node0x55fe2e9425f0&#45;&gt;node0x55fe2e9427b0+</title>
<path fill="none" stroke="black" d="M669.9,-91.51C681.51,-93.04 692.45,-94.49 702.03,-95.75"/>
<polygon fill="black" stroke="black" points="701.85,-99.26 712.23,-97.1 702.77,-92.32 701.85,-99.26"/>
</g>
<!-- node0x55fe2e9425f0*&#45;&gt;node0x55fe2e9425f0 -->
<g id="edge2" class="edge">
<title>node0x55fe2e9425f0*&#45;&gt;node0x55fe2e9425f0</title>
<path fill="none" stroke="black" d="M353.32,-73.5C361.16,-73.5 370.38,-73.5 380.41,-73.5"/>
<polygon fill="black" stroke="black" points="380.7,-77 390.7,-73.5 380.7,-70 380.7,-77"/>
</g>
<!-- node0x55fe2e9427b0 -->
<g id="node10" class="node">
<title>node0x55fe2e9427b0</title>
<polygon fill="none" stroke="black" points="802,-82.5 802,-118.5 1132,-118.5 1132,-82.5 802,-82.5"/>
<text text-anchor="middle" x="854.5" y="-96.8" font-family="Times,serif" font-size="14.00">x1w1+x2w2</text>
<polyline fill="none" stroke="black" points="907,-82.5 907,-118.5 "/>
<text text-anchor="middle" x="964" y="-96.8" font-family="Times,serif" font-size="14.00">data=&#45;6.0000</text>
<polyline fill="none" stroke="black" points="1021,-82.5 1021,-118.5 "/>
<text text-anchor="middle" x="1076.5" y="-96.8" font-family="Times,serif" font-size="14.00">grad=0.5000</text>
</g>
<!-- node0x55fe2e9427b0&#45;&gt;node0x55fe2e942970+ -->
<g id="edge13" class="edge">
<title>node0x55fe2e9427b0&#45;&gt;node0x55fe2e942970+</title>
<path fill="none" stroke="black" d="M1113.37,-82.49C1129.83,-80.45 1145.3,-78.53 1158.2,-76.94"/>
<polygon fill="black" stroke="black" points="1158.9,-80.38 1168.39,-75.67 1158.04,-73.43 1158.9,-80.38"/>
</g>
<!-- node0x55fe2e9427b0+&#45;&gt;node0x55fe2e9427b0 -->
<g id="edge3" class="edge">
<title>node0x55fe2e9427b0+&#45;&gt;node0x55fe2e9427b0</title>
<path fill="none" stroke="black" d="M766.37,-100.5C773.71,-100.5 782.28,-100.5 791.65,-100.5"/>
<polygon fill="black" stroke="black" points="791.7,-104 801.7,-100.5 791.7,-97 791.7,-104"/>
</g>
<!-- node0x55fe2e942970 -->
<g id="node12" class="node">
<title>node0x55fe2e942970</title>
<polygon fill="none" stroke="black" points="1258,-54.5 1258,-90.5 1505,-90.5 1505,-54.5 1258,-54.5"/>
<text text-anchor="middle" x="1271" y="-68.8" font-family="Times,serif" font-size="14.00">n</text>
<polyline fill="none" stroke="black" points="1284,-54.5 1284,-90.5 "/>
<text text-anchor="middle" x="1339" y="-68.8" font-family="Times,serif" font-size="14.00">data=0.8814</text>
<polyline fill="none" stroke="black" points="1394,-54.5 1394,-90.5 "/>
<text text-anchor="middle" x="1449.5" y="-68.8" font-family="Times,serif" font-size="14.00">grad=0.5000</text>
</g>
<!-- node0x55fe2e942b30tanh -->
<g id="node15" class="node">
<title>node0x55fe2e942b30tanh</title>
<ellipse fill="none" stroke="black" cx="1572.85" cy="-72.5" rx="31.7" ry="18"/>
<text text-anchor="middle" x="1572.85" y="-68.8" font-family="Times,serif" font-size="14.00">tanh</text>
</g>
<!-- node0x55fe2e942970&#45;&gt;node0x55fe2e942b30tanh -->
<g id="edge14" class="edge">
<title>node0x55fe2e942970&#45;&gt;node0x55fe2e942b30tanh</title>
<path fill="none" stroke="black" d="M1505.09,-72.5C1514.08,-72.5 1522.71,-72.5 1530.6,-72.5"/>
<polygon fill="black" stroke="black" points="1530.87,-76 1540.87,-72.5 1530.87,-69 1530.87,-76"/>
</g>
<!-- node0x55fe2e942970+&#45;&gt;node0x55fe2e942970 -->
<g id="edge4" class="edge">
<title>node0x55fe2e942970+&#45;&gt;node0x55fe2e942970</title>
<path fill="none" stroke="black" d="M1222.04,-72.5C1229.56,-72.5 1238.32,-72.5 1247.79,-72.5"/>
<polygon fill="black" stroke="black" points="1247.89,-76 1257.89,-72.5 1247.89,-69 1247.89,-76"/>
</g>
<!-- node0x55fe2e942b30 -->
<g id="node14" class="node">
<title>node0x55fe2e942b30</title>
<polygon fill="none" stroke="black" points="1640.69,-54.5 1640.69,-90.5 1886.69,-90.5 1886.69,-54.5 1640.69,-54.5"/>
<text text-anchor="middle" x="1653.19" y="-68.8" font-family="Times,serif" font-size="14.00">o</text>
<polyline fill="none" stroke="black" points="1665.69,-54.5 1665.69,-90.5 "/>
<text text-anchor="middle" x="1720.69" y="-68.8" font-family="Times,serif" font-size="14.00">data=0.7071</text>
<polyline fill="none" stroke="black" points="1775.69,-54.5 1775.69,-90.5 "/>
<text text-anchor="middle" x="1831.19" y="-68.8" font-family="Times,serif" font-size="14.00">grad=1.0000</text>
</g>
<!-- node0x55fe2e942b30tanh&#45;&gt;node0x55fe2e942b30 -->
<g id="edge5" class="edge">
<title>node0x55fe2e942b30tanh&#45;&gt;node0x55fe2e942b30</title>
<path fill="none" stroke="black" d="M1605.03,-72.5C1612.65,-72.5 1621.28,-72.5 1630.49,-72.5"/>
<polygon fill="black" stroke="black" points="1630.68,-76 1640.68,-72.5 1630.68,-69 1630.68,-76"/>
</g>
</g>
</svg>
